<?xml version="1.0" encoding="UTF-8"?>
<svg id="Layer_1" data-name="Layer 1" xmlns="http://www.w3.org/2000/svg" viewBox="0 0 61.02 67.45">
  <defs>
    <style>
      .cls-1 {
        fill: #ed7057;
      }
    </style>
  </defs>
  <path class="cls-1" d="M61,31.26c-.1-8.39-4.12-16.79-10.32-22.39C43.96,2.8,35.06.12,26.18.01,24.44,0,22.7,0,20.96.01H6.19c-.79.01-1.56.05-2.32.15C2.08.41.64,1.83.25,3.57c-.12.54-.19,1.11-.22,1.69h0C-.02,6.05,0,6.86.03,7.66v38.42h0c0,.96.06,1.92.42,2.84.66,1.71,2.24,2.57,4.01,2.67,2.74.15,5.53.01,8.27.01.37,0,.74,0,1.24,0,0,3.1.03,6.2.01,9.3-.01,2.47-.12,4.89,2.44,6.14.5.24,1,.35,1.52.39v.03h11.21c.92.01,1.84.02,2.76,0h.03c.73-.02,1.46-.04,2.19-.1,10.53-.77,20.38-8.11,24.49-17.77,2.5-5.88,2.45-12.04,2.37-18.32ZM54.85,40.3c-.37,7.2-5.06,14.02-11.13,17.69-7.15,4.33-15.6,3.42-23.63,3.42v-9.83h1.44c4.95,0,9.89,0,14.84,0,0,0,.02,0,.03,0h4.83c.49-.08.96-.22,1.39-.43,1.79-.91,2.67-2.77,2.67-4.58,0-.15,0-.3,0-.45h0v-17.34c.04-1.31.05-2.62-.14-3.86-.27-1.79-1.53-3.04-2.89-4.12-2.04-1.62-4.08-3.24-6.17-4.79-1.61-1.2-4.27-3.16-6.45-3.11-.02,0-.04,0-.06,0-.02,0-.04,0-.06,0-2.19-.06-4.84,1.9-6.45,3.11-2.09,1.56-4.13,3.17-6.17,4.79-1.36,1.08-2.61,2.33-2.89,4.12-.19,1.24-.19,2.55-.14,3.86v11.15h6.13c0-1.6,0-3.2-.01-4.8,0-1.65,0-3.3,0-4.95,0-1.11-.21-3.83.45-4.49,2.5-2.5,6.28-4.4,9.06-6.57.03-.02.06-.04.09-.06.03.02.06.04.09.06,2.78,2.18,6.56,4.08,9.06,6.57.66.66.45,3.38.45,4.49,0,1.65,0,3.3,0,4.95,0,2.26,0,4.51-.01,6.77v3.58h-.06s0,0,0,0H6.19V6.11h7.62c3.11,0,6.22,0,9.34,0,4.95,0,9.71.08,14.43,1.79,7.45,2.71,13.43,8.39,16.04,15.95,1.82,5.26,1.51,10.97,1.23,16.45Z"/>
</svg>