<?xml version="1.0" encoding="UTF-8"?>
<svg id="Layer_1" data-name="Layer 1" xmlns="http://www.w3.org/2000/svg" viewBox="0 0 410.84 92.34">
  <defs>
    <style>
      .cls-1 {
        fill: #ed7057;
      }

      .cls-2 {
        fill: #fff;
      }
    </style>
  </defs>
  <g>
    <path class="cls-2" d="M104.72,69.41V22.93h20.13c4.71,0,8.68.78,11.91,2.35,3.22,1.56,5.68,4.07,7.36,7.51,1.68,3.44,2.53,8,2.53,13.67,0,7.99-1.84,13.81-5.52,17.46-3.68,3.66-9.1,5.48-16.27,5.48h-20.13ZM116.34,60.46h6.93c2.5,0,4.61-.37,6.31-1.12,1.71-.75,3.01-2.13,3.9-4.15.89-2.02,1.34-4.93,1.34-8.73s-.4-6.82-1.19-8.91c-.79-2.09-2.05-3.56-3.75-4.4-1.71-.84-3.91-1.26-6.6-1.26h-6.93v28.58Z"/>
    <path class="cls-2" d="M147.16,69.41l17.75-46.47h12.56l17.75,46.47h-12.12l-4.19-10.54h-15.52l-4.11,10.54h-12.12ZM164.98,50.28h12.34l-6.21-16.16-6.13,16.16Z"/>
    <path class="cls-2" d="M201.14,69.41V22.93h33.77v8.95h-22.16v9.74h19.48v9.09h-19.48v18.69h-11.62Z"/>
    <path class="cls-2" d="M261.1,70.13c-7.55,0-13.3-1.92-17.25-5.77-3.95-3.85-5.92-9.84-5.92-17.97,0-8.61,1.97-14.79,5.92-18.55,3.94-3.75,9.69-5.63,17.25-5.63s13.3,1.88,17.25,5.63c3.94,3.75,5.92,9.93,5.92,18.55,0,8.13-1.97,14.12-5.92,17.97-3.95,3.85-9.69,5.77-17.25,5.77ZM261.1,60.24c3.9,0,6.75-1.12,8.55-3.36,1.8-2.24,2.71-5.74,2.71-10.5,0-5.2-.9-8.86-2.71-11.01-1.8-2.14-4.65-3.21-8.55-3.21s-6.82,1.07-8.62,3.21c-1.8,2.14-2.71,5.81-2.71,11.01,0,4.76.9,8.26,2.71,10.5,1.8,2.24,4.68,3.36,8.62,3.36Z"/>
    <path class="cls-2" d="M290.19,69.41V22.93h23.24c5.48,0,9.53,1.44,12.12,4.33,2.6,2.89,3.9,6.76,3.9,11.62,0,3.13-.79,5.87-2.38,8.23-1.59,2.36-3.75,4.11-6.49,5.27.67.53,1.21,1.12,1.62,1.77.41.65.85,1.55,1.34,2.71l5.49,12.56h-12.12l-5.2-11.83c-.43-1.01-.99-1.74-1.66-2.2-.67-.46-1.64-.69-2.89-.69h-5.34v14.72h-11.62ZM301.8,45.74h8.59c2.26,0,4.03-.56,5.3-1.7,1.27-1.13,1.91-2.85,1.91-5.16,0-4.67-2.24-7-6.71-7h-9.09v13.86Z"/>
    <path class="cls-2" d="M346.11,69.41V31.88h-13.64v-8.95h38.9v8.95h-13.64v37.53h-11.62Z"/>
    <path class="cls-2" d="M376.57,69.41V22.93h34.28v8.95h-22.66v9.74h19.99v9.09h-19.99v9.74h22.66v8.95h-34.28Z"/>
  </g>
  <path class="cls-1" d="M83.5,42.79c-.14-11.49-5.64-22.98-14.13-30.65C60.18,3.84,48,.16,35.84.02,33.46,0,31.08,0,28.7.02H8.47c-1.08.02-2.14.07-3.17.21C2.84.56.87,2.51.34,4.89c-.16.74-.26,1.52-.3,2.31h0C-.02,8.28,0,9.38.04,10.48v52.59h0c.01,1.32.09,2.63.57,3.88.9,2.35,3.07,3.52,5.5,3.65,3.75.2,7.57.01,11.32.01.51,0,1.01,0,1.7,0,0,4.24.04,8.48.01,12.73-.02,3.38-.16,6.69,3.34,8.41.68.33,1.37.47,2.08.53v.04h15.35c1.26.02,2.52.03,3.78,0h.04c1-.02,2-.06,2.99-.13,14.41-1.06,27.9-11.1,33.53-24.32,3.43-8.05,3.35-16.49,3.25-25.08ZM75.08,55.17c-.51,9.86-6.93,19.19-15.24,24.22-9.79,5.93-21.36,4.68-32.35,4.68v-13.45h1.97c6.77,0,13.55,0,20.32,0,.01,0,.03,0,.04,0h6.61c.68-.11,1.32-.3,1.9-.59,2.46-1.24,3.65-3.79,3.66-6.27,0-.21,0-.41,0-.62h0v-23.73c.06-1.79.06-3.59-.2-5.28-.37-2.45-2.09-4.16-3.95-5.64-2.79-2.22-5.59-4.43-8.45-6.56-2.21-1.65-5.84-4.33-8.83-4.25-.03,0-.06,0-.08,0-.03,0-.06,0-.08,0-2.99-.08-6.62,2.61-8.83,4.25-2.86,2.13-5.65,4.35-8.45,6.56-1.86,1.47-3.58,3.19-3.95,5.64-.26,1.7-.25,3.49-.2,5.28v15.26h8.4c0-2.19-.01-4.38-.01-6.57,0-2.26,0-4.52,0-6.78,0-1.52-.29-5.24.61-6.14,3.42-3.42,8.59-6.02,12.4-9,.04-.03.08-.05.12-.08.04.03.08.05.12.08,3.81,2.98,8.98,5.58,12.4,9,.9.9.61,4.62.61,6.14,0,2.26,0,4.52,0,6.78,0,3.09-.01,6.18-.02,9.27v4.9h-.08s0,0,0,0H8.47V8.37h10.43c4.26,0,8.52,0,12.78,0,6.77,0,13.3.11,19.75,2.45,10.2,3.71,18.39,11.49,21.96,21.84,2.49,7.2,2.07,15.02,1.68,22.52Z"/>
</svg>